<svg width="332" height="23" viewBox="0 0 332 23" fill="none" xmlns="http://www.w3.org/2000/svg">
<path d="M3.05575 16.5059C1.44437 14.7287 0.638672 12.5156 0.638672 9.83306C0.638672 7.18403 1.44437 4.95973 3.05575 3.18253C4.69894 1.40534 6.72377 0.499969 9.14085 0.499969C11.5579 0.499969 13.5616 1.40534 15.1941 3.18253C16.8373 4.95973 17.643 7.17285 17.643 9.83306C17.643 12.4821 16.8373 14.7287 15.1941 16.5059C13.5616 18.2831 11.5579 19.155 9.14085 19.155C6.72377 19.155 4.69894 18.2831 3.05575 16.5059ZM9.14085 18.0261C11.2187 18.0261 12.9467 17.2548 14.3673 15.6788C15.7878 14.1028 16.4875 12.1803 16.4875 9.83306C16.4875 7.48582 15.7772 5.55213 14.3673 3.9873C12.9467 2.4113 11.2187 1.64006 9.14085 1.64006C7.06301 1.64006 5.32441 2.4113 3.91445 3.9873C2.49389 5.55213 1.78361 7.48582 1.78361 9.83306C1.78361 12.1803 2.49389 14.1028 3.91445 15.6788C5.33501 17.2548 7.07361 18.0261 9.14085 18.0261Z" fill="white"/>
<path d="M22.043 18.8532V0.824158H33.4499V1.93072H23.1667V7.93296H28.8808C30.736 7.93296 32.1777 8.44712 33.2273 9.45308C34.2768 10.459 34.7857 11.7668 34.7857 13.3875C34.7857 16.6848 32.6124 18.8532 28.8808 18.8532H22.043ZM23.1667 17.7467H28.7854C31.8915 17.7467 33.6407 16.1707 33.6407 13.3875C33.6407 10.6379 31.8385 9.03952 28.7854 9.03952H23.1667V17.7467Z" fill="white"/>
<path d="M38.4102 18.8197V17.6797C38.9509 17.9144 39.534 18.015 40.1488 18.015C41.7072 18.015 42.6401 16.8078 43.7426 14.2035L43.8381 13.9688L36.873 0.813049H38.1664L44.4211 12.6834L49.5945 0.813049H50.8455L44.5377 15.053C43.1914 18.0709 41.9934 19.1439 40.3078 19.1439C39.6082 19.1551 38.9721 19.0545 38.4102 18.8197Z" fill="white"/>
<path d="M54.2158 18.8532V0.824158H61.3928C64.3929 0.824158 66.1845 2.46723 66.1845 5.17215C66.1845 7.15054 65.4001 8.43595 63.8099 9.03952C66.2587 9.43073 67.7217 11.2526 67.7217 13.857C67.7217 16.8748 65.6757 18.8532 62.2303 18.8532H54.2158ZM55.3395 17.7467H62.0607C64.8912 17.7467 66.5026 16.3048 66.5026 13.7564C66.5026 11.2079 64.8912 9.76604 62.0607 9.76604H55.3395V17.7467ZM55.3395 8.72655H61.255C63.7039 8.72655 65.0926 7.48587 65.0926 5.32864C65.0926 3.17141 63.7039 1.93072 61.255 1.93072H55.3395V8.72655Z" fill="white"/>
<path d="M71.7832 18.8532V0.824158H72.9069V7.91061H78.5468C80.4232 7.91061 81.865 8.42477 82.9145 9.43073C83.964 10.4367 84.4729 11.7444 84.4729 13.3652C84.4729 16.6848 82.2784 18.8532 78.5362 18.8532H71.7832ZM72.9069 17.7467H78.4726C81.5787 17.7467 83.3597 16.1483 83.3597 13.3652C83.3597 10.6155 81.5787 9.01716 78.4726 9.01716H72.9069V17.7467Z" fill="white"/>
<path d="M94.873 9.08417C94.873 7.72054 95.9756 6.55811 97.269 6.55811C98.6047 6.55811 99.6861 7.66465 99.6861 9.08417C99.6861 10.4478 98.6047 11.5767 97.269 11.5767C95.965 11.5879 94.873 10.459 94.873 9.08417Z" fill="white"/>
<path d="M113.064 16.5278C111.431 14.7506 110.594 12.5375 110.594 9.83258C110.594 7.12767 111.421 4.91455 113.064 3.15971C114.696 1.38252 116.753 0.510681 119.191 0.510681C121.047 0.510681 122.69 0.980134 124.079 1.93021V3.21559C122.584 2.16492 120.972 1.65077 119.223 1.65077C117.124 1.65077 115.343 2.42201 113.901 3.99801C112.46 5.54048 111.749 7.49651 111.749 9.84375C111.749 12.191 112.46 14.147 113.901 15.7119C115.343 17.2543 117.124 18.0256 119.255 18.0256C121.28 18.0256 123.018 17.4108 124.481 16.1478V17.4555C123.061 18.5844 121.312 19.1545 119.202 19.1545C116.764 19.1545 114.707 18.2826 113.064 16.5278Z" fill="white"/>
<path d="M127.822 18.8197V17.6797C128.363 17.9144 128.946 18.015 129.561 18.015C131.119 18.015 132.052 16.8078 133.155 14.2035L133.25 13.9688L126.285 0.813049H127.579L133.833 12.6834L139.007 0.813049H140.258L133.95 15.053C132.603 18.0709 131.406 19.1439 129.72 19.1439C129.02 19.1551 128.384 19.0545 127.822 18.8197Z" fill="white"/>
<path d="M143.638 18.8532V0.824158H144.783L151.43 10.0119L158.077 0.824158H159.168V18.8532H158.045V2.65724L151.79 11.3085H151.059L144.751 2.65724V18.8532H143.638Z" fill="white"/>
<path d="M164.322 18.8532V0.824158H165.446V8.78244L174.139 0.824158H175.729L166.718 9.08422L177.097 18.8421H175.39L165.446 9.46426V18.8421H164.322V18.8532Z" fill="white"/>
<path d="M179.917 18.8532V0.824158H181.041V16.8413L192.596 0.824158H193.624V18.8532H192.501V2.7802L180.903 18.8532H179.917Z" fill="white"/>
<path d="M205.296 9.08417C205.296 7.72054 206.398 6.55811 207.692 6.55811C209.038 6.55811 210.109 7.66465 210.109 9.08417C210.109 10.4478 209.038 11.5767 207.692 11.5767C206.398 11.5879 205.296 10.459 205.296 9.08417Z" fill="white"/>
<path d="M222.733 16.5059C221.122 14.7287 220.316 12.5156 220.316 9.83306C220.316 7.18403 221.122 4.95973 222.733 3.18253C224.366 1.40534 226.401 0.499969 228.819 0.499969C231.236 0.499969 233.239 1.40534 234.872 3.18253C236.504 4.95973 237.31 7.17285 237.31 9.83306C237.31 12.4821 236.504 14.7287 234.872 16.5059C233.239 18.2831 231.236 19.155 228.819 19.155C226.401 19.155 224.366 18.2831 222.733 16.5059ZM228.819 18.0261C230.896 18.0261 232.624 17.2548 234.045 15.6788C235.465 14.1028 236.165 12.1803 236.165 9.83306C236.165 7.48582 235.455 5.55213 234.045 3.9873C232.624 2.4113 230.896 1.64006 228.819 1.64006C226.741 1.64006 225.013 2.4113 223.592 3.9873C222.172 5.55213 221.461 7.48582 221.461 9.83306C221.461 12.1803 222.172 14.1028 223.592 15.6788C225.002 17.2548 226.741 18.0261 228.819 18.0261Z" fill="white"/>
<path d="M238.446 22.9889V17.7355H240.036C241.181 16.0589 242.019 14.1252 242.528 11.968C243.037 9.79957 243.312 6.71462 243.312 2.70195V0.824158H253.299V17.7467H255.981V23H254.91V18.8532H239.517V23H238.446V22.9889ZM252.175 17.7467V1.93072H244.436V3.13787C244.436 10.0119 243.577 14.55 241.362 17.7467H252.175Z" fill="white"/>
<path d="M259.383 18.8532V0.824158H270.811V1.93072H260.507V8.6036H269.03V9.71016H260.507V17.7467H271.203V18.8532H259.383Z" fill="white"/>
<path d="M272.983 18.8532L282.122 9.2966L273.969 0.824158H275.454L283.267 8.98363V0.824158H284.39V9.03952L292.256 0.824158H293.751L285.567 9.2966L294.727 18.8532H293.189L284.401 9.6878V18.8532H283.277V9.71016L274.531 18.8532H272.983Z" fill="white"/>
<path d="M295.776 22.9889V17.7355H297.367C298.511 16.0589 299.349 14.1252 299.858 11.968C300.367 9.79957 300.642 6.71462 300.642 2.70195V0.824158H310.629V17.7467H313.311V23H312.24V18.8532H296.847V23H295.776V22.9889ZM309.505 17.7467V1.93072H301.766V3.13787C301.766 10.0119 300.907 14.55 298.692 17.7467H309.505Z" fill="white"/>
<path d="M314.954 18.8533L322.725 0.723633H323.774L331.492 18.8533H330.315L328.047 13.544H318.421L316.152 18.8533H314.954ZM318.813 12.5157H327.633L323.234 2.2661L318.813 12.5157Z" fill="white"/>
</svg>
