<svg width="76" height="58" viewBox="0 0 76 58" fill="none" xmlns="http://www.w3.org/2000/svg">
<path d="M72.375 7.125H3.625C1.89922 7.125 0.5 5.72578 0.5 4C0.5 2.27422 1.89922 0.875 3.625 0.875H72.375C74.1008 0.875 75.5 2.27422 75.5 4C75.5 5.72578 74.1008 7.125 72.375 7.125ZM75.5 29C75.5 27.2742 74.1008 25.875 72.375 25.875H3.625C1.89922 25.875 0.5 27.2742 0.5 29C0.5 30.7258 1.89922 32.125 3.625 32.125H72.375C74.1008 32.125 75.5 30.7258 75.5 29ZM75.5 54C75.5 52.2742 74.1008 50.875 72.375 50.875H3.625C1.89922 50.875 0.5 52.2742 0.5 54C0.5 55.7258 1.89922 57.125 3.625 57.125H72.375C74.1008 57.125 75.5 55.7258 75.5 54Z" fill="white"/>
</svg>
